<svg width="48" height="48" viewBox="0 0 48 48" fill="currentColor" xmlns="http://www.w3.org/2000/svg">
    <path d="M24.0048 31.8256C24.17 31.8256 24.3315 31.8744 24.4689 31.9659C24.6063 32.0575 24.7133 32.1875 24.7766 32.3397C24.8398 32.4919 24.8563 32.6594 24.8241 32.8209C24.7919 32.9825 24.7123 33.1309 24.5955 33.2473C24.4787 33.3638 24.3298 33.4431 24.1678 33.4753C24.0057 33.5074 23.8378 33.4909 23.6851 33.4279C23.5325 33.3648 23.4021 33.2581 23.3103 33.1211C23.2185 32.9842 23.1695 32.8232 23.1695 32.6584C23.1701 32.4377 23.2583 32.2263 23.4149 32.0702C23.5714 31.9142 23.7835 31.8262 24.0048 31.8256ZM28.2753 31.5856C28.2602 31.4842 28.2171 31.389 28.1508 31.3106C28.0845 31.2323 27.9976 31.1739 27.8999 31.142C27.8022 31.1101 27.6975 31.106 27.5976 31.1301C27.4976 31.1541 27.4064 31.2055 27.3341 31.2784L26.0919 32.5144C26.0197 32.5869 25.969 32.6778 25.9453 32.7772C25.9217 32.8766 25.9261 32.9806 25.9579 33.0777C25.9898 33.1747 26.048 33.2612 26.126 33.3274C26.204 33.3936 26.2988 33.437 26.4 33.4529L27.1463 33.5705L27.0933 33.2369L28.2392 33.4169L28.0587 32.2768L28.3909 32.3296L28.2753 31.5856ZM19.7223 26.7853C19.7337 26.8886 19.774 26.9867 19.8386 27.0682C19.9032 27.1498 19.9894 27.2116 20.0876 27.2467C20.1857 27.2817 20.2917 27.2885 20.3936 27.2664C20.4954 27.2442 20.5889 27.194 20.6635 27.1214L21.9057 25.8733C21.9781 25.8011 22.029 25.7103 22.0527 25.611C22.0765 25.5117 22.0721 25.4078 22.0402 25.3108C22.0083 25.2138 21.95 25.1276 21.8719 25.0616C21.7937 24.9957 21.6988 24.9526 21.5975 24.9372L20.8513 24.8196L20.9018 25.1533L19.7584 24.9732L19.9389 26.1133L19.6043 26.0605L19.7223 26.7853ZM27.3028 30.9087L24.9461 29.3511C25.8 28.5876 26.7375 27.9226 27.7409 27.3686C27.2438 27.2509 26.8026 26.9661 26.4915 26.5621C26.4915 26.5621 25.1555 28.2422 24.1998 28.7942C25.5334 27.4046 26.1401 26.2477 26.388 26.0053C26.7178 25.6813 27.4039 26.0629 27.4592 26.4157C27.0669 26.3005 26.9272 26.5093 27.1535 26.7277C27.4761 27.0446 28.0322 27.2534 28.2825 27.0085C28.5329 26.7637 28.3475 26.0125 27.7602 25.4389C27.1728 24.8652 26.453 24.6348 26.1521 24.9276C25.8512 25.2205 25.271 26.5837 23.7785 28.1606L22.5243 26.2741L20.702 27.4718L22.9625 28.967C21.9484 29.7941 20.8166 30.4663 19.6043 30.9615C19.9536 31.1398 20.2891 31.3435 20.6082 31.5712C21.6492 30.9048 22.6499 30.1779 23.6052 29.3943C22.883 30.4455 21.1979 31.6408 20.5191 32.1472C20.2085 32.3704 20.2784 32.8816 20.6587 33.2609C21.0391 33.6401 21.4748 33.6737 21.7468 33.4097C22.0766 33.0881 22.6832 31.708 24.1541 30.1359L25.4636 32.1016L27.3028 30.9087ZM15.1653 16.0976C15.9067 15.4376 16.9804 15.4376 17.6015 15.644C17.1531 15.1986 16.5991 14.8733 15.991 14.6983C15.7538 14.8516 15.5558 15.0579 15.4124 15.3008C15.2691 15.5436 15.1845 15.8165 15.1653 16.0976ZM18.3309 36.6762C18.1383 36.5922 17.8494 36.4146 17.6568 35.7882C17.3381 35.7393 17.0368 35.6114 16.7806 35.4162C16.2991 34.9361 16.5399 34.3841 16.665 33.9761C16.1427 33.3545 16.2534 32.8048 16.6 32.4592C16.861 32.2438 17.162 32.0818 17.4859 31.9825C17.8098 31.8833 18.1501 31.8487 18.4873 31.8808V30.6975C17.3439 30.3423 16.2173 30.4407 15.3362 31.3312C14.3492 32.3272 14.1109 33.1361 12.8616 33.6233C13.343 34.4417 14.1928 34.4897 14.915 34.4681C14.7631 35.0375 14.4034 35.5297 13.9063 35.8482C14.3878 36.3282 15.2616 36.5034 16.0319 36.3042C16.0111 36.7718 15.8965 37.2304 15.6949 37.6531C16.1814 37.7799 16.6952 37.7542 17.1664 37.5794C17.6377 37.4046 18.0434 37.0892 18.3285 36.6762H18.3309ZM13.5524 31.2472C14.253 30.4647 14.7561 28.9814 15.0377 27.2534C16.0729 27.2534 17.6857 27.7718 18.4849 28.9838V24.6804C17.5207 24.9209 16.5205 24.9835 15.5336 24.8652C13.8943 24.6252 12.9747 23.4252 12.9747 21.9851C12.9783 21.5886 13.0645 21.1973 13.2278 20.8358C13.3911 20.4743 13.6279 20.1505 13.9232 19.885C13.9545 19.863 13.9794 19.833 13.9952 19.7982C14.011 19.7634 14.0171 19.7249 14.013 19.6869C14.0088 19.6489 13.9944 19.6127 13.9714 19.5821C13.9485 19.5515 13.9176 19.5277 13.8822 19.513C13.8004 19.4722 13.7571 19.4314 13.6752 19.3906C8.55494 16.1792 3.93057 8.68603 3.43467 7.86999C3.42749 7.86055 3.41821 7.85288 3.40756 7.84761C3.39691 7.84233 3.38518 7.83959 3.37329 7.83959C3.3614 7.83959 3.34967 7.84233 3.33902 7.84761C3.32837 7.85288 3.31909 7.86055 3.3119 7.86999C1.74236 9.22846 1.57626 11.9502 3.23006 14.0455C4.3037 15.4448 6.61468 16.9688 8.96899 18.2865C8.92807 18.5265 8.92807 18.7809 8.88474 19.0282C4.09186 18.0009 0.998515 14.6551 0.502617 14.1199C0.495433 14.1105 0.486152 14.1028 0.475503 14.0975C0.464853 14.0922 0.453123 14.0895 0.441231 14.0895C0.42934 14.0895 0.41761 14.0922 0.40696 14.0975C0.39631 14.1028 0.38703 14.1105 0.379846 14.1199C-0.527696 15.8504 0.257075 18.2001 2.03123 19.1842C3.55985 20.0482 5.99601 20.5426 9.01232 20.9146C9.05325 21.1187 9.09417 21.3251 9.13509 21.5723C6.20462 21.9567 3.22496 21.4996 0.545948 20.2546C0.502617 20.2138 0.461693 20.2546 0.42077 20.2954C0.213744 22.1483 1.37164 23.6316 3.39375 24.0012C5.41827 24.2892 9.71284 23.2596 9.71284 23.2596C9.7911 23.46 9.88781 23.6529 10.0017 23.8356C7.19243 25.4413 3.18673 25.2757 2.60898 25.2373C2.58782 25.2389 2.56795 25.248 2.55295 25.263C2.53794 25.278 2.52879 25.2978 2.52713 25.3189C2.56806 27.2534 4.46739 27.7886 6.15971 27.5822C7.60407 27.3782 9.62858 26.4301 11.032 25.3597C11.1733 25.5209 11.3253 25.6725 11.487 25.8133C10.1245 28.0358 6.94448 28.9334 5.87083 29.0247C5.82991 29.0247 5.78899 29.0655 5.82991 29.1063C6.53283 30.3063 8.05904 30.6711 9.75376 29.8887C10.7432 29.3943 11.9829 28.1582 12.8495 26.7685L13.4682 27.0085C12.9314 29.6847 10.2906 31.2904 9.83561 31.5376C9.79469 31.5376 9.79469 31.6192 9.83561 31.6192C10.6204 32.4808 12.4379 32.524 13.5524 31.2472ZM17.8133 5.72189L16.9876 4.73544L16.1523 5.72189L16.978 6.72034L17.8133 5.72189ZM8.39125 11.7342C8.84381 11.403 10.4543 10.4981 10.0426 12.2142C10.2379 12.1524 10.4096 12.0327 10.5348 11.871C10.66 11.7093 10.7327 11.5134 10.7432 11.3094C10.7432 10.1981 9.21694 9.70368 9.21694 8.63323C9.21694 7.06835 11.7349 7.06835 11.6531 7.31557C11.1981 8.71484 12.0647 10.4861 14.46 10.5677V10.2509C12.4379 10.2509 11.5279 8.11001 13.0975 6.62913C12.2308 3.989 10.9502 6.62913 9.87653 7.32757C9.25786 7.69958 7.56555 7.49317 7.44037 8.23481C7.27668 9.38687 9.25786 9.34607 8.39125 11.7342ZM30.3985 15.644C30.8104 15.5117 31.2489 15.4839 31.6742 15.5631C32.0996 15.6423 32.4985 15.826 32.8347 16.0976C32.8163 15.8171 32.7328 15.5447 32.5908 15.3019C32.4487 15.059 32.252 14.8524 32.0162 14.6983C31.4055 14.8722 30.8489 15.1975 30.3985 15.644ZM32.6638 31.3312C31.7803 30.4407 30.6561 30.3423 29.5102 30.6975V31.8832C30.1921 31.8188 30.8718 32.0269 31.4 32.4616C31.7442 32.8072 31.8549 33.3569 31.335 33.9785C31.4529 34.3841 31.6912 34.9385 31.217 35.4186C30.9612 35.6145 30.6597 35.7425 30.3408 35.7906C30.1482 36.417 29.8593 36.5946 29.6691 36.6786C29.9543 37.0921 30.3605 37.4077 30.8322 37.5825C31.304 37.7574 31.8183 37.7828 32.3051 37.6555C32.1035 37.2328 31.9889 36.7742 31.9681 36.3066C32.7384 36.5058 33.6146 36.3282 34.0937 35.8506C33.5958 35.533 33.2358 35.0404 33.085 34.4705C33.8072 34.4921 34.6642 34.4441 35.1384 33.6257C33.8891 33.1361 33.6483 32.3272 32.6638 31.3312ZM47.4516 20.2546C44.7726 21.4993 41.793 21.9564 38.8625 21.5723C38.9034 21.3323 38.9468 21.1187 38.9877 20.9146C42.0016 20.5426 44.4377 20.0482 45.9688 19.1842C47.7429 18.1953 48.5277 15.8504 47.6202 14.1199C47.6127 14.1104 47.6032 14.1028 47.5924 14.0975C47.5815 14.0922 47.5696 14.0895 47.5576 14.0895C47.5455 14.0895 47.5336 14.0922 47.5227 14.0975C47.5119 14.1028 47.5024 14.1104 47.495 14.1199C46.9991 14.6551 43.9033 17.9913 39.1129 19.021C39.0719 18.7809 39.0719 18.5265 39.031 18.2793C41.3853 16.9616 43.6963 15.4376 44.7699 14.0383C46.4213 11.9382 46.2576 9.22126 44.6881 7.86279C44.6807 7.85331 44.6712 7.84565 44.6603 7.84038C44.6495 7.8351 44.6376 7.83237 44.6255 7.83237C44.6134 7.83237 44.6015 7.8351 44.5907 7.84038C44.5798 7.84565 44.5703 7.85331 44.5629 7.86279C44.0694 8.68603 39.4426 16.1792 34.3224 19.3834C34.2405 19.4242 34.1996 19.465 34.1178 19.5058C34.0824 19.5205 34.0515 19.5443 34.0286 19.5749C34.0056 19.6055 33.9912 19.6417 33.987 19.6797C33.9829 19.7177 33.989 19.7562 34.0048 19.791C34.0206 19.8258 34.0455 19.8558 34.0768 19.8778C34.3721 20.1433 34.6089 20.4671 34.7722 20.8286C34.9355 21.1901 35.0217 21.5814 35.0253 21.9779C35.0253 23.418 34.1057 24.618 32.4664 24.858C31.4787 24.9763 30.4777 24.9137 29.5127 24.6732V28.9766C30.3239 27.7646 31.9199 27.2462 32.9599 27.2462C33.2511 28.9742 33.7446 30.4575 34.4476 31.24C35.5621 32.5168 37.3796 32.4736 38.1644 31.6096C38.2053 31.6096 38.2053 31.528 38.1644 31.528C37.7094 31.288 35.0662 29.6751 34.5294 26.9989L35.1505 26.7589C36.0171 28.1582 37.2544 29.3991 38.2462 29.8791C39.9313 30.6615 41.4672 30.2895 42.1677 29.0967C42.211 29.0559 42.1677 29.015 42.1268 29.015C41.0531 28.931 37.8755 28.0262 36.513 25.8037C36.674 25.6629 36.8252 25.5113 36.9656 25.3501C38.369 26.4205 40.3935 27.3686 41.8379 27.5726C43.523 27.779 45.4319 27.2438 45.4729 25.3093C45.4711 25.2878 45.4616 25.2677 45.4461 25.2527C45.4306 25.2376 45.4102 25.2288 45.3886 25.2277C44.8109 25.2685 40.8148 25.4317 37.9983 23.826C38.1122 23.6433 38.2089 23.4504 38.2872 23.25C38.2872 23.25 42.5817 24.2796 44.6062 23.9916C46.6284 23.622 47.7838 22.1387 47.5768 20.2858C47.5335 20.2546 47.4926 20.2138 47.4516 20.2546ZM31.8429 5.72189L31.0172 4.73544L30.1915 5.72189L31.0172 6.72034L31.8429 5.72189ZM36.3493 7.32757C36.2675 7.08755 38.7855 7.08755 38.7855 8.64523C38.7855 9.71569 37.2568 10.2101 37.2568 11.3214C37.2675 11.5257 37.3406 11.7218 37.4662 11.8835C37.5918 12.0453 37.7641 12.1648 37.9598 12.2262C37.5457 10.4981 39.1634 11.403 39.6112 11.7462C38.7445 9.34607 40.7257 9.39887 40.562 8.24681C40.4369 7.50518 38.7445 7.71159 38.1259 7.33957C37.0522 6.64113 35.7716 4.0058 34.9049 6.64113C36.4721 8.12201 35.5645 10.2629 33.5424 10.2629V10.5917C35.9304 10.4981 36.7995 8.72684 36.3493 7.32757ZM15.4518 10.6637H18.5475C21.1498 10.6637 22.3053 9.05805 22.676 7.69958H25.324C25.6971 9.05805 26.8526 10.6637 29.4525 10.6637H32.5458C32.8128 10.2997 33.048 9.91342 33.2487 9.50927C33.7302 8.23481 33.1236 7.61558 32.216 7.61558L31.0124 8.68603L29.775 7.65638C28.8651 7.65638 28.2464 8.23481 28.7423 9.55008C28.8242 9.71569 28.9831 9.9629 29.113 10.1693C27.9985 10.0037 26.595 9.26206 26.3062 7.65638C26.6888 7.07577 27.0338 6.47131 27.3389 5.84669C28.0803 3.9938 27.1319 3.20656 25.7693 3.20656L23.9976 5.28026L22.2234 3.22096C20.8609 3.22096 19.91 4.0034 20.6539 5.86109C20.959 6.48571 21.3039 7.09018 21.6866 7.67078C21.3977 9.27646 20.0015 10.0181 18.8773 10.1837C19.0025 9.9773 19.1662 9.73009 19.2505 9.56448C19.7463 8.24921 19.1253 7.67078 18.2177 7.67078L16.978 8.70043L15.7744 7.62998C14.8668 7.62998 14.2457 8.24921 14.7416 9.52368C14.9454 9.92312 15.183 10.3045 15.4518 10.6637ZM25.1555 1.39927L23.9976 0L22.8421 1.39927L23.9976 2.88014L25.1555 1.39927ZM33.6195 14.1607C33.8742 14.1815 34.1178 14.2736 34.3223 14.4265C34.5267 14.5794 34.6837 14.7868 34.7749 15.0247C35.0638 14.7847 35.3527 13.9543 35.2299 13.3783C34.734 10.7381 28.622 12.471 25.5262 11.3598C25.4444 12.1014 26.4747 13.3351 27.4255 13.7887C25.7742 15.2288 24.2961 18.1089 23.9976 21.6107C23.7087 18.1113 22.2234 15.2288 20.572 13.7887C21.5205 13.3351 22.5532 12.1086 22.4714 11.3598C19.3732 12.4806 13.2636 10.7453 12.758 13.3807C12.6329 13.9567 12.9217 14.7799 13.213 15.0272C13.3043 14.7892 13.4612 14.5818 13.6657 14.4289C13.8701 14.276 14.1138 14.1839 14.3685 14.1631C17.498 13.6831 20.2904 17.0745 20.2904 19.9858C20.3078 20.7422 20.1535 21.4927 19.8392 22.1814C19.525 22.87 19.0587 23.479 18.4753 23.9628L23.988 22.6163L29.5006 23.9628C28.9177 23.4787 28.4519 22.8697 28.138 22.181C27.8241 21.4924 27.6703 20.742 27.6879 19.9858C27.6976 17.0745 30.4876 13.6807 33.6195 14.1607ZM25.3601 38.5339C25.8969 37.0507 26.5782 35.5218 27.7385 35.5218C28.3066 35.5218 28.8121 36.0642 29.1829 36.1242C29.2604 36.1413 29.3413 36.1341 29.4145 36.1036C29.4878 36.0731 29.5498 36.0208 29.5921 35.9538C29.7234 35.7339 29.8055 35.4883 29.8328 35.2338C30.1185 35.2108 30.3996 35.1486 30.6681 35.049C30.7418 35.0229 30.8039 34.9718 30.8435 34.9047C30.8832 34.8375 30.8978 34.7586 30.8848 34.6817C30.8405 34.3917 30.746 34.1115 30.6056 33.8537C30.7862 33.7004 30.9343 33.5127 31.0413 33.3017C31.0753 33.2311 31.0843 33.1512 31.0668 33.0749C31.0493 32.9986 31.0064 32.9304 30.945 32.8816C30.539 32.5937 30.0423 32.4616 29.5464 32.5096H29.5247V33.3617C29.5365 33.5557 29.5076 33.7501 29.4397 33.9324C29.3719 34.1147 29.2666 34.2809 29.1307 34.4203C28.9947 34.5597 28.8311 34.6692 28.6502 34.7419C28.4693 34.8146 28.2752 34.8489 28.0803 34.8425H26.4626C25.9791 34.8315 25.5005 34.9422 25.0713 35.1646C24.6421 35.3869 24.2761 35.7137 24.0072 36.1146C23.7389 35.7137 23.3734 35.3869 22.9445 35.1646C22.5157 34.9422 22.0375 34.8314 21.5542 34.8425H19.9269C19.7321 34.8485 19.5382 34.814 19.3575 34.7412C19.1768 34.6683 19.0133 34.5588 18.8774 34.4195C18.7415 34.2801 18.6362 34.1141 18.5682 33.932C18.5003 33.7499 18.4711 33.5557 18.4825 33.3617V32.5192H18.4633C17.9686 32.4693 17.4723 32.5979 17.0646 32.8816C17.0037 32.9308 16.9612 32.999 16.9441 33.0753C16.9271 33.1516 16.9365 33.2314 16.9708 33.3017C17.077 33.5132 17.2252 33.701 17.4065 33.8537C17.266 34.1115 17.1715 34.3917 17.1272 34.6817C17.1143 34.7586 17.1289 34.8375 17.1685 34.9047C17.2081 34.9718 17.2702 35.0229 17.3439 35.049C17.6124 35.1488 17.8935 35.211 18.1792 35.2338C18.2065 35.4883 18.2886 35.7339 18.4199 35.9538C18.4622 36.0208 18.5242 36.0731 18.5975 36.1036C18.6707 36.1341 18.7517 36.1413 18.8292 36.1242C19.1975 36.0642 19.7006 35.5218 20.2735 35.5218C21.4338 35.5218 22.1127 37.0507 22.6495 38.5339C20.0015 39.1508 16.7036 40.922 16.044 42.8541C15.8032 43.5958 16.6217 44.5822 17.6544 44.7886C17.6954 44.7886 17.7363 44.7886 17.7363 44.7478C18.2731 41.9061 21.3713 39.7652 22.9817 39.3956C23.0636 39.602 23.0226 39.5612 23.1045 39.7652C21.3713 40.5908 19.6765 42.3189 19.1806 44.3782C18.976 45.3239 20.0087 46.1879 20.8657 46.3943C20.9067 46.3943 20.9476 46.3943 20.9476 46.3535C21.1137 43.759 22.2692 41.5365 23.3019 40.5068C23.3428 40.7132 23.3428 40.9196 23.3837 41.0829C23.3837 41.0829 22.3101 44.047 22.3101 46.1879C22.3101 47.1768 23.7978 47.868 23.9952 48C24.2022 47.8776 25.6803 47.1768 25.6803 46.1879C25.6803 44.047 24.6066 41.0829 24.6066 41.0829C24.6476 40.9196 24.6476 40.7132 24.6885 40.5068C25.7212 41.5365 26.8767 43.759 27.0428 46.3535C27.0428 46.3943 27.0837 46.3943 27.1246 46.3943C27.9913 46.1879 29.024 45.3239 28.8097 44.3782C28.3138 42.3189 26.6215 40.5908 24.8883 39.7652C24.9701 39.5612 24.9292 39.602 25.0111 39.3956C26.6215 39.7652 29.7197 41.9061 30.2565 44.7478C30.2565 44.7886 30.2974 44.7886 30.3383 44.7886C31.3711 44.5822 32.1968 43.5886 31.9488 42.8541C31.3061 40.922 28.0033 39.1508 25.3601 38.5339Z"  />
</svg>