<svg width="803" height="860" viewBox="0 0 803 860" fill="none" xmlns="http://www.w3.org/2000/svg">
<path opacity="0.1" d="M804.596 56.0334L790.143 57.5166V45.6352L804.596 47.1184L803.176 32.2075H814.726L813.29 47.0553L827.744 45.5721V57.4534L813.275 56.0334L814.711 70.8969H803.176L804.596 56.0334ZM808.936 171.218C814.916 171.218 819.776 139.897 819.776 124.292C819.776 115.772 814.916 110.186 808.936 110.186C802.955 110.186 798.095 115.772 798.095 124.292C798.095 139.897 802.94 171.218 808.936 171.218ZM862.899 196.085C866.749 183.999 871.088 165.632 871.088 156.765C871.088 140.544 862.11 122.604 830.568 117.097C830.568 137.041 821.101 184.662 809.582 184.662H808.289C796.802 184.662 787.303 136.678 787.303 117.097C755.856 122.62 747.146 140.56 747.146 156.765C747.146 165.632 751.485 183.999 755.319 196.085H862.899ZM808.936 100.529C810.708 100.576 812.454 100.094 813.951 99.1434C815.448 98.1928 816.628 96.8175 817.339 95.1932C818.05 93.5689 818.26 91.7694 817.944 90.0248C817.627 88.2802 816.797 86.6696 815.56 85.3991C814.323 84.1285 812.736 83.2556 811 82.892C809.265 82.5284 807.46 82.6906 805.817 83.3578C804.175 84.0251 802.768 85.167 801.778 86.6378C800.787 88.1085 800.258 89.8412 800.257 91.6144C800.24 92.7699 800.452 93.9173 800.879 94.9911C801.306 96.0648 801.941 97.0437 802.747 97.8717C803.553 98.6998 804.515 99.3608 805.577 99.8168C806.639 100.273 807.78 100.515 808.936 100.529ZM854.094 219.533C854.094 219.533 856.319 214.057 859.159 206.168H759.075C761.899 214.057 764.124 219.533 764.124 219.533H854.094ZM1003.57 276.746C1003.57 276.746 1004.8 249.812 1018.07 236.7C1018.07 236.7 1022.09 248.802 1037.29 251.611C1016.5 228.085 1041.86 192.756 1052.02 177.561C1060.02 165.617 1057.81 157.207 1055.45 153.814C1047.81 142.943 1030.44 146.635 1014.42 146.493C1040.66 164.212 1013.89 187.518 1000.79 217.844C987.693 248.171 1003.57 276.746 1003.57 276.746ZM974.218 119.874C1001.67 144.915 1016.38 137.957 1038.22 138.667C1060.05 139.377 1062.55 148.797 1062.55 148.797H1063.26C1062.09 133.176 1036.01 137.594 1010.62 120.837C992.631 108.939 981.918 92.3244 973.997 86.013C966.076 79.7015 943.007 84.5771 926.471 95.354C926.471 95.354 941.856 90.3048 974.265 119.874H974.218ZM862.725 219.69C889.155 219.69 914.921 202.05 925.177 165.143C935.434 128.237 961.61 122.162 961.61 122.162C955.93 115.851 929.927 96.9161 919.576 104.064C919.576 104.064 909.557 109.334 905.47 150.217C901.415 190.815 879.735 212.748 864.366 214.673L862.725 219.69ZM686.713 145.846H650.122C662.398 202.965 708.425 219.375 756.313 219.375L754.735 215.099C717.435 215.099 693.277 186.997 686.761 145.846H686.713ZM447.65 70.8338H459.2L457.78 56.0334L472.233 57.5166V45.6352L457.78 47.1184L459.216 32.2706H447.65L449.101 47.1184L434.648 45.6352V57.5166L449.101 56.0334L447.65 70.8338ZM453.44 171.218C459.421 171.218 464.28 139.897 464.28 124.292C464.28 115.772 459.421 110.186 453.44 110.186C447.46 110.186 442.6 115.772 442.6 124.292C442.6 139.897 447.46 171.218 453.44 171.218ZM507.088 196.085C510.922 183.999 515.262 165.632 515.262 156.765C515.262 140.56 506.552 122.62 475.105 117.097C475.105 136.678 465.637 184.662 454.119 184.662H452.825C441.338 184.662 431.839 137.041 431.839 117.097C400.282 122.604 391.32 140.544 391.32 156.765C391.32 165.632 395.659 183.999 399.509 196.085H507.088ZM453.44 100.529C455.213 100.576 456.959 100.094 458.456 99.1434C459.953 98.1928 461.132 96.8175 461.844 95.1932C462.555 93.5689 462.766 91.7694 462.449 90.0248C462.132 88.2802 461.302 86.6696 460.065 85.3991C458.828 84.1285 457.241 83.2556 455.505 82.892C453.77 82.5284 451.965 82.6906 450.323 83.3578C448.68 84.0251 447.273 85.167 446.283 86.6378C445.292 88.1085 444.763 89.8412 444.762 91.6144C444.733 93.9469 445.63 96.1957 447.257 97.8672C448.884 99.5387 451.108 100.496 453.44 100.529ZM408.266 219.533H498.205C498.205 219.533 500.43 214.057 503.254 206.168H403.217C406.057 214.057 408.266 219.533 408.266 219.533ZM244.262 236.7C257.532 249.812 258.762 276.746 258.762 276.746C258.762 276.746 274.667 248.203 261.555 217.844C248.443 187.486 221.682 164.197 247.922 146.493C231.891 146.635 214.519 142.943 206.898 153.814C204.531 157.207 202.322 165.617 210.322 177.561C220.483 192.756 245.84 228.053 225.059 251.611C240.238 248.802 244.262 236.7 244.262 236.7ZM224.097 138.667C245.934 137.957 260.64 144.978 288.095 119.874C320.505 90.3048 335.889 95.354 335.889 95.354C319.353 84.5771 296.284 79.7961 288.363 86.013C280.442 92.2298 269.729 108.939 251.709 120.837C226.306 137.594 200.223 133.176 199.056 148.797H199.766C199.766 148.797 202.275 139.392 224.097 138.667ZM300.702 122.162C300.702 122.162 326.895 128.237 337.135 165.143C347.376 202.05 373.158 219.69 399.588 219.69L398.01 214.673C382.641 212.748 360.961 190.815 356.906 150.217C352.819 109.334 342.8 104.064 342.8 104.064C332.402 96.9003 306.398 115.819 300.718 122.162H300.702ZM507.704 215.099L506.126 219.375C554.014 219.375 600.041 202.965 612.317 145.846H575.615C569.099 186.997 544.941 215.099 507.719 215.099H507.704ZM162.559 486.256C138.355 470.194 121.535 455.235 112.62 441.918C92.3914 434.029 66.2303 422.037 53.339 411.213C35.6353 396.349 41.2525 382.969 43.3038 380.302C58.8932 396.223 92.6597 419.165 116.643 429.374C131.617 423.536 152.414 419.276 172.674 416.751C112.62 393.083 48.1321 348.461 14.4445 306.458C7.61227 319.728 -20.1425 382.196 31.8957 433.334C59.3034 460.316 115.744 478.904 162.559 486.256ZM172.674 405.69C164.469 389.911 156.469 368.736 155.412 350.465C130.529 330.899 102.111 306.016 85.6855 277.567C76.2182 261.141 79.6895 246.719 86.4113 241.765C91.5394 259.626 124.959 309.613 155.254 334.717C155.53 318.373 157.922 302.133 162.37 286.403C127.152 248.076 87.6736 184.583 78.1432 159.7C67.4137 168.583 48.9368 190.91 44.4083 222.389C39.8798 253.867 50.1044 286.608 74.9244 319.112C94.0166 344.122 136.035 381.407 172.674 405.69ZM125.495 561.048C142.389 560.971 159.259 559.748 175.987 557.387C159.924 551.927 140.122 543.659 127.247 535.47C111.152 535.155 89.3777 534.697 75.2873 530.405C54.6487 524.094 54.9485 509.972 55.3114 506.737C73.1571 513.917 103.484 520.78 125.905 522.106C136.517 512.402 148.078 503.791 160.414 496.402C107.208 496.86 39.2802 475.795 1.04831 455.583C-7.67733 526.587 40.4952 547.983 55.6901 552.89C71.6582 558.097 97.0935 561.048 125.495 561.048ZM208.854 617.851C187.947 615.169 167.83 610.214 163.175 608.273C152.288 611.429 126.253 615.768 117.795 615.295C98.6082 614.254 96.557 599.516 96.557 599.516C96.557 599.516 131.097 600.984 158.741 594.783C164.566 585.061 171.217 575.859 178.622 567.28C150.331 575.075 92.5492 581.197 37.0396 572.55C38.1599 595.414 60.3921 639.026 110.19 639.026C136.966 639.105 179.553 628.265 208.854 617.867V617.851ZM215.686 669.511C212.262 671.814 197.131 681.376 184.539 682.97C161.581 685.873 159.151 671.672 159.151 671.672C175.795 669.364 191.987 664.522 207.166 657.314C208.625 646.749 210.926 636.318 214.045 626.119C178.606 645.858 120.793 659.744 86.506 660.201C93.3697 676.501 119.973 710.693 153.692 710.693C184.855 710.693 229.43 686.694 254.471 668.864C246.518 670.442 225.674 670.899 215.686 669.526V669.511ZM309.302 704.539C299.037 707.78 288.459 709.933 277.744 710.961C277.744 710.961 265.674 726.267 254.597 726.267C252.042 726.268 249.531 725.598 247.316 724.324C245.1 723.05 243.258 721.217 241.974 719.009C241.974 719.009 256.175 712.161 265.326 702.457C263.329 693.599 262.271 684.555 262.171 675.475C237.54 700.216 191.261 724.263 158.93 728.918C165.242 742.251 188.026 763.205 216.444 763.205C253.287 763.126 291.535 726.914 309.302 704.539ZM420.463 738.685C410.759 741.083 394.964 753.801 394.964 753.801C393.37 757.804 392.406 762.03 392.109 766.329C385.324 767.544 381.584 762.321 384.393 751.418C381.199 747.589 378.608 743.295 376.708 738.685C366.531 760.159 368.93 793.247 401.323 794.178C398.546 770.668 409.102 748.625 420.384 738.606L420.463 738.685ZM342.674 741.84C334.137 758.329 322.161 751.923 321.767 749.588C324.711 746.197 327.35 742.554 329.656 738.7C325.774 731.163 322.293 723.426 319.227 715.521C307.045 741.193 284.64 767.276 265.894 777.453C276.94 792.79 311.132 795.914 332.449 781.997C346.792 772.641 355.865 755.631 366.2 734.835C358.549 737.818 350.65 740.12 342.595 741.714L342.674 741.84ZM563.86 469.436C572.302 483.006 579.812 499.416 582.416 513.869C590.51 504.071 599.062 487.045 604.853 466.722C611.954 475.59 624.356 493.672 631.188 508.599C638.02 493.672 650.422 475.59 657.523 466.722C663.313 487.061 671.866 504.071 679.96 513.869C682.564 499.337 690.074 483.006 698.516 469.436C704.938 495.85 729.695 521.506 755.319 523.478C738.689 501.893 737.963 464.576 739.178 452.159C728.133 434.944 720.811 419.402 717.34 408.846C709.813 416.278 698.216 430.715 687.786 447.393C687.34 431.953 685.853 416.56 683.337 401.319C672.591 411.039 653.136 418.061 642.738 420.79C637.845 431.237 633.977 442.133 631.188 453.326C628.416 442.151 624.569 431.271 619.701 420.838C609.303 418.108 589.848 411.086 579.102 401.367C576.586 416.607 575.099 432 574.653 447.441C564.223 430.763 552.562 416.325 545.099 408.893C541.612 419.449 534.322 434.991 523.261 452.206C524.445 464.624 523.751 501.94 507.12 523.526C532.681 521.601 557.438 495.897 563.86 469.436ZM756.266 337.463C746.215 350.859 730.357 358.48 707.999 356.303C707.999 356.303 718.429 338.851 720.29 323.672C709.861 333.944 686.65 337.463 672.228 336.011C672.228 336.011 655.235 362.709 645.31 404.601C660.063 400.136 681.869 387.529 692.378 377.494C694.319 386.74 696.544 399.584 697.806 409.903C705.87 399.563 714.492 389.67 723.636 380.271C727.659 397.927 733.908 420.001 747.982 439.63C745.252 419.717 749.56 384.089 758.365 364.902C759.816 353.825 758.996 345.258 756.266 337.51V337.463ZM506.094 337.463C503.364 345.21 502.56 353.778 504.011 364.902C512.847 384.089 517.108 419.717 514.394 439.63C528.453 420.001 534.701 397.927 538.74 380.271C547.883 389.67 556.506 399.563 564.57 409.903C565.832 399.536 568.057 386.74 569.998 377.494C580.507 387.529 602.313 400.136 617.066 404.601C607.141 362.756 590.163 336.059 590.163 336.059C575.741 337.51 552.531 333.992 542.085 323.72C543.947 338.899 554.393 356.35 554.393 356.35C532.003 358.527 516.161 350.906 506.094 337.51V337.463ZM660.047 210.413C680.56 220.527 713.048 230.578 761.031 230.578L848.635 230.814C853.716 230.814 855.609 233.97 853.952 239.666C836.406 298.947 788.565 313.006 769.662 338.678C769.662 338.678 769.804 330.678 761.031 311.586C755.083 321.4 738.941 339.782 728.417 342.133C730.925 336.848 733.908 315.972 731.572 301.945C706.784 323.672 676.205 327.948 659.811 315.404C673.775 315.941 691.952 300.367 701.119 286.545C688.323 289.511 670.745 286.466 667.116 282.774C675.179 280.801 684.978 273.622 690.863 266.806C681.806 266.175 662.13 258.727 656.497 248.234C664.386 250.033 676.094 246.798 683.7 242.759C677.988 239.666 663.519 224.108 660.047 210.46V210.413ZM778.246 248.676C778.246 251.548 782.08 252.431 795.602 257.828C809.125 263.224 815.989 270.451 815.989 270.451L824.588 256.25C826.671 252.794 827.318 248.581 820.312 248.581L778.246 248.676ZM939.457 354.283C940.23 353.257 939.347 353.131 938.731 353.526C938.116 353.92 923.205 362.709 890.827 341.66C858.449 320.611 833.44 311.68 820.517 309.661C820.517 309.661 808.367 318.307 797.291 327.996C827.507 330.568 851.207 349.06 853.921 355.451C854.173 356.034 854.804 356.05 854.994 355.451C856.904 349.499 856.539 343.05 853.968 337.352C853.968 337.352 868.043 346.031 895.324 361.999C922.606 377.967 935.055 360.184 939.457 354.33V354.283ZM930.211 268.888C948.467 294.04 923.221 321.574 921.659 323.483C920.57 324.824 919.623 324.209 919.781 322.71C919.939 321.211 906.653 282.632 830.268 303.049C828.69 303.491 827.633 303.523 829.164 301.945C843.286 290.726 860.027 265.654 865.455 245.394C865.423 245.378 911.955 243.8 930.211 268.936V268.888ZM889.186 263.634C889.186 256.613 878.977 254.672 873.123 254.672C871.73 258.336 870.003 261.864 867.964 265.212C873.991 262.593 882.259 262.325 889.265 263.682L889.186 263.634ZM322.919 354.33C327.321 360.184 339.755 377.998 367.099 362.078C394.444 346.157 408.455 337.431 408.455 337.431C405.88 343.127 405.508 349.576 407.414 355.53C407.603 356.098 408.25 356.082 408.503 355.53C411.217 349.139 434.916 330.646 465.133 328.075C454.087 318.386 441.89 309.74 441.89 309.74C428.983 311.822 404.021 320.674 371.596 341.739C339.171 362.804 324.26 353.999 323.676 353.605C323.092 353.21 322.146 353.305 322.919 354.33ZM501.219 230.625C549.281 230.625 581.69 220.574 602.202 210.46C598.731 224.108 584.246 239.666 578.44 242.806C586.061 246.846 597.769 250.08 605.658 248.281C600.025 258.774 580.412 266.222 571.276 266.853C577.177 273.669 586.96 280.849 595.039 282.821C591.41 286.513 573.816 289.559 561.036 286.592C570.187 300.414 588.38 315.988 602.344 315.452C585.935 327.996 555.371 323.72 530.583 301.992C528.247 316.02 531.245 336.895 533.738 342.181C523.23 339.83 507.072 321.447 501.108 311.633C492.351 330.725 492.477 338.725 492.477 338.725C473.543 313.053 425.749 298.994 408.203 239.714C406.53 234.096 408.44 230.862 413.52 230.862L501.219 230.625ZM484.13 248.723H442.001C434.979 248.723 435.689 252.936 437.709 256.392L446.324 270.593C446.324 270.593 453.125 263.303 466.71 257.97C480.296 252.636 484.13 251.595 484.13 248.723ZM396.937 245.378C402.349 265.591 419.027 290.711 433.228 301.929C434.806 303.507 433.764 303.507 432.139 303.034C355.723 282.679 342.437 321.463 342.579 322.694C342.721 323.925 341.806 324.808 340.717 323.467C339.139 321.558 313.893 294.024 332.165 268.873C350.437 243.721 396.937 245.378 396.937 245.378ZM394.333 265.196C392.288 261.852 390.56 258.323 389.174 254.656C383.32 254.656 373.111 256.597 373.111 263.618C380.117 262.325 388.385 262.593 394.333 265.259V265.196ZM631.188 68.4986C640.655 68.4986 652.742 29.2253 655.85 -7.93365C655.85 -15.4601 646.383 -26.9628 631.188 -27.2626C615.93 -26.9628 606.51 -15.4601 606.51 -7.93365C609.24 26.7322 621.926 68.4986 631.188 68.4986ZM705.253 95.2277C708.409 91.2988 724.077 60.9248 724.077 30.2509C724.077 2.65388 689.459 -12.541 668.852 -13.2353C666.469 26.2115 651.148 88.08 631.172 88.08C612.238 88.08 595.844 26.5429 593.493 -13.2353C572.901 -12.541 538.267 2.65388 538.267 30.2509C538.267 60.9248 553.935 91.2988 557.091 95.2277H705.253ZM697.932 110.139C697.889 108.944 697.495 107.788 696.799 106.816C696.103 105.843 695.136 105.097 694.019 104.67C692.903 104.243 691.685 104.155 690.518 104.415C689.351 104.676 688.286 105.274 687.457 106.136C686.628 106.997 686.071 108.084 685.855 109.26C685.639 110.436 685.774 111.65 686.243 112.749C686.712 113.849 687.495 114.787 688.493 115.445C689.492 116.103 690.661 116.452 691.857 116.45C693.499 116.417 695.061 115.734 696.2 114.551C697.339 113.367 697.962 111.781 697.932 110.139ZM575.599 110.139C575.556 108.944 575.162 107.789 574.467 106.817C573.772 105.845 572.807 105.099 571.691 104.672C570.575 104.244 569.358 104.155 568.191 104.414C567.024 104.673 565.96 105.27 565.13 106.13C564.3 106.99 563.742 108.075 563.524 109.25C563.307 110.425 563.439 111.638 563.906 112.738C564.373 113.839 565.153 114.777 566.149 115.437C567.145 116.097 568.314 116.449 569.509 116.45C570.323 116.436 571.127 116.261 571.874 115.936C572.621 115.611 573.296 115.142 573.862 114.556C574.427 113.97 574.872 113.278 575.17 112.52C575.468 111.762 575.614 110.953 575.599 110.139ZM569.446 133.46C571.313 134.101 573.278 134.411 575.252 134.375H687.108C689.082 134.413 691.048 134.103 692.914 133.46C694.695 132.827 696.262 131.708 697.439 130.23C698.616 128.752 699.355 126.974 699.573 125.097H562.787C563.005 126.974 563.745 128.752 564.921 130.23C566.098 131.708 567.666 132.827 569.446 133.46ZM606.037 110.139C605.993 108.944 605.6 107.789 604.905 106.817C604.21 105.845 603.244 105.099 602.128 104.672C601.012 104.244 599.795 104.155 598.628 104.414C597.462 104.673 596.397 105.27 595.567 106.13C594.737 106.99 594.179 108.075 593.961 109.25C593.744 110.425 593.877 111.638 594.343 112.738C594.81 113.839 595.59 114.777 596.586 115.437C597.583 116.097 598.751 116.449 599.946 116.45C600.76 116.436 601.564 116.261 602.311 115.936C603.058 115.611 603.733 115.142 604.299 114.556C604.864 113.97 605.309 113.278 605.607 112.52C605.905 111.762 606.051 110.953 606.037 110.139ZM623.425 -78.0859H638.935L637.263 -97.0204L654.13 -95.2058V-110.022L637.263 -108.223L638.935 -127H623.425L625.097 -108.223L608.23 -110.022V-95.1427L625.097 -97.0204L623.425 -78.0859ZM619.748 -53.0293C619.841 -50.7968 620.587 -48.6408 621.895 -46.8287C623.202 -45.0166 625.012 -43.6282 627.101 -42.8359C629.191 -42.0437 631.466 -41.8823 633.647 -42.372C635.827 -42.8616 637.815 -43.9807 639.365 -45.5903C640.914 -47.1998 641.957 -49.2291 642.364 -51.4261C642.771 -53.6232 642.523 -55.8913 641.652 -57.949C640.782 -60.0066 639.326 -61.7633 637.465 -63.0009C635.605 -64.2385 633.422 -64.9026 631.188 -64.9107C629.661 -64.8881 628.154 -64.5647 626.753 -63.9591C625.352 -63.3535 624.084 -62.4775 623.021 -61.3813C621.959 -60.2851 621.123 -58.9902 620.561 -57.5706C619.999 -56.151 619.723 -54.6346 619.748 -53.1082V-53.0293ZM667.479 110.139C667.436 108.944 667.042 107.789 666.347 106.817C665.652 105.845 664.686 105.099 663.57 104.672C662.454 104.244 661.237 104.155 660.071 104.414C658.904 104.673 657.84 105.27 657.01 106.13C656.18 106.99 655.621 108.075 655.404 109.25C655.186 110.425 655.319 111.638 655.786 112.738C656.252 113.839 657.033 114.777 658.029 115.437C659.025 116.097 660.193 116.449 661.388 116.45C662.203 116.438 663.008 116.265 663.756 115.94C664.504 115.616 665.18 115.147 665.746 114.561C666.312 113.974 666.756 113.281 667.054 112.523C667.351 111.764 667.496 110.954 667.479 110.139ZM636.758 110.139C636.714 108.944 636.321 107.789 635.626 106.817C634.931 105.845 633.965 105.099 632.849 104.672C631.733 104.244 630.516 104.155 629.349 104.414C628.183 104.673 627.118 105.27 626.289 106.13C625.459 106.99 624.9 108.075 624.683 109.25C624.465 110.425 624.598 111.638 625.065 112.738C625.531 113.839 626.311 114.777 627.308 115.437C628.304 116.097 629.472 116.449 630.667 116.45C631.483 116.438 632.288 116.265 633.037 115.941C633.786 115.617 634.463 115.148 635.03 114.562C635.597 113.975 636.043 113.283 636.343 112.524C636.642 111.765 636.788 110.954 636.774 110.139H636.758ZM214.503 427.875C191.135 428.412 149.936 433.145 129.077 439.772C143.278 456.876 180.374 481.444 202.606 491.842C185.328 498.422 154.323 515.084 141.384 527.123C158.047 537.458 194.638 549.214 211.931 553.111C201.864 561.3 181.131 585 173.526 597.765C187.837 602.246 217.296 606.143 235.994 607.232C229.998 619.76 223.166 641.945 221.367 656.288C230.629 657.235 261.587 655.625 276.924 652.186C275.614 664.809 276.103 687.593 278.186 697.439C294.115 694.817 309.77 690.74 324.954 685.258C327.858 696.461 338.271 720.571 341.916 726.283C354.851 723.693 367.373 719.356 379.138 713.391C382.854 722.329 387.237 730.973 392.251 739.253C403.674 727.671 416.66 722.922 429.031 722.922C454.277 722.922 474 742.03 478.182 768.38C479.46 753.012 480.517 737.17 481.053 721.596C462.119 681.834 416.36 657.487 370.839 707.096C370.271 706.007 357.222 685.636 351.904 664.635C341.932 669.637 319.542 677.432 300.576 678.946C297.925 664.856 295.842 641.33 296.789 626.135C278.652 626.438 260.522 625.218 242.589 622.49C244.893 606.632 253.808 583.643 259.946 571.036C247.465 566.633 223.118 557.008 211.915 548.63C219.489 537.411 236.483 517.987 246.629 507.416C234.7 498.059 215.655 480.781 206.819 469.641C220.152 459.496 238.976 450.407 254.849 444.395C243.804 422.81 237.288 387.45 239.071 367.506C219.016 346.551 187.963 307.704 178.591 284.052C164.626 322.994 166.125 394.787 214.503 427.875ZM446.782 950.893C449.007 960.818 451.168 974.293 447.334 990.182C467.168 991.634 489.195 980.525 498.615 960.628C483.862 958.688 476.383 950.988 472.517 944.629C453.283 943.603 432.187 927.525 434.49 901.553C414.735 888.472 411.974 854.548 434.49 832.126C445.165 821.805 459.066 815.471 473.858 814.186C474.489 808.032 475.136 801.563 475.783 795.078C440.123 792.727 405.473 804.056 390.01 836.213C374.957 867.486 376.235 892.669 349.38 909.553C363.991 925.994 389.537 921.939 403.548 916.558C403.548 916.558 405.126 942.514 392.929 958.751C411.027 964.889 429.693 963.216 446.782 950.893ZM536.326 920.708C529.543 923.996 522.029 925.485 514.504 925.031C507.613 934.607 497.394 941.264 485.85 943.698C500.035 956.226 533.439 951.556 536.326 920.708ZM475.925 933.773C494.213 933.773 506.646 919.982 509.376 911.683C503.132 912.905 496.721 913.006 490.442 911.982C488.507 908.354 485.784 905.206 482.473 902.768C471.102 908.77 457.873 910.22 445.472 906.823C445.788 920.708 457.874 933.726 475.925 933.726V933.773ZM469.866 856.015C470.45 847.589 471.444 837.239 472.675 825.326C449.89 828.15 429.741 845.223 429.741 869.175C429.741 887.526 442.537 897.577 458.411 897.577C464.156 897.497 469.825 896.25 475.074 893.912C480.322 891.573 485.041 888.193 488.943 883.975C482.09 883.129 475.414 881.212 469.156 878.295C469.913 871.747 468.714 868.086 466.205 865.577C461.645 861.017 453.204 862.422 448.139 867.597C447.113 855.826 461.33 850.903 469.866 856.015ZM1145.73 429.374C1169.72 419.165 1203.48 396.239 1219.07 380.302C1221.14 382.969 1226.74 396.349 1209.04 411.213C1196.15 422.037 1169.98 434.045 1149.76 441.918C1140.84 455.235 1124.04 470.194 1099.82 486.256C1146.63 478.919 1203.09 460.316 1230.48 433.35C1282.55 382.164 1254.76 319.743 1247.93 306.473C1214.24 348.476 1149.76 393.036 1089.7 416.767C1109.96 419.276 1130.77 423.536 1145.73 429.374ZM1175.96 241.781C1182.69 246.735 1186.19 261.157 1176.69 277.583C1160.26 305.984 1131.86 330.915 1106.96 350.48C1105.92 368.736 1097.91 389.927 1089.7 405.706C1126.34 381.422 1168.36 344.169 1187.45 319.128C1212.29 286.624 1222.54 254.088 1217.98 222.404C1213.42 190.721 1194.96 168.599 1184.25 159.715C1174.78 184.599 1135.22 248.076 1100.01 286.419C1104.45 302.154 1106.85 318.399 1107.12 334.749C1137.42 309.661 1170.82 259.579 1175.96 241.781ZM1261.3 455.646C1223.13 475.858 1155.2 496.923 1101.93 496.465C1114.27 503.854 1125.83 512.465 1136.44 522.169C1158.86 520.843 1189.2 513.98 1207.03 506.8C1207.4 509.956 1207.7 524.157 1187.06 530.468C1173.05 534.76 1151.19 535.202 1135.1 535.533C1122.22 543.723 1102.42 551.991 1086.36 557.45C1103.09 559.811 1119.96 561.034 1136.85 561.111C1165.25 561.111 1190.67 558.16 1206.61 553.016C1221.8 548.046 1270.02 526.65 1261.3 455.646ZM1083.75 567.359C1091.16 575.938 1097.81 585.14 1103.63 594.861C1131.3 600.999 1165.82 599.595 1165.82 599.595C1165.82 599.595 1163.77 614.332 1144.58 615.374C1136.12 615.847 1110.1 611.476 1099.2 608.352C1094.59 610.293 1074.43 615.248 1053.54 617.93C1082.84 628.328 1125.41 639.168 1152.19 639.168C1201.98 639.168 1224.22 595.556 1225.35 572.692C1169.83 581.276 1112.05 575.154 1083.75 567.359ZM1055.23 657.298C1070.4 664.506 1086.59 669.348 1103.22 671.657C1103.22 671.657 1100.79 685.857 1077.84 682.954C1065.21 681.376 1050.13 671.799 1046.69 669.495C1036.78 670.868 1015.86 670.41 1007.91 668.785C1032.9 686.615 1077.52 710.614 1108.68 710.614C1142.4 710.614 1169.01 676.485 1175.87 660.122C1141.58 659.665 1083.77 645.779 1048.33 626.04C1051.45 636.271 1053.76 646.734 1055.23 657.329V657.298ZM997.255 702.378C1006.33 712.082 1020.59 718.93 1020.59 718.93C1019.31 721.14 1017.47 722.974 1015.25 724.247C1013.04 725.521 1010.52 726.19 1007.97 726.188C996.923 726.188 984.805 710.883 984.805 710.883C974.061 709.884 963.452 707.758 953.153 704.539C970.857 726.993 1009.09 763.205 1046.07 763.205C1074.48 763.205 1097.2 742.251 1103.59 728.918C1071.26 724.263 1024.98 700.216 1000.35 675.475C1000.26 684.526 999.225 693.543 997.255 702.378ZM885.794 738.669C883.894 743.279 881.303 747.573 878.109 751.402C880.918 762.305 877.178 767.528 870.394 766.313C870.096 762.014 869.132 757.788 867.538 753.785C867.538 753.785 851.759 741.067 842.039 738.669C853.321 748.688 863.877 770.731 861.179 794.163C893.525 793.169 895.924 760.081 885.746 738.606L885.794 738.669ZM943.339 715.458C940.278 723.363 936.802 731.1 932.925 738.637C935.219 742.498 937.86 746.142 940.814 749.525C940.499 751.86 928.428 758.266 919.907 741.777C911.836 740.122 903.926 737.756 896.271 734.708C906.606 755.505 915.679 772.577 930.037 781.871C951.354 795.788 985.547 792.664 996.576 777.327C977.878 767.149 955.488 741.067 943.291 715.395L943.339 715.458ZM1007.61 444.38C1023.49 450.423 1042.32 459.511 1055.64 469.626C1046.8 480.765 1027.77 498.027 1015.83 507.4C1025.92 517.972 1042.92 537.38 1050.54 548.614C1039.35 556.992 1014.99 566.617 1002.52 571.02C1008.66 583.643 1017.58 606.617 1019.88 622.474C1001.93 625.221 983.788 626.456 965.634 626.166C966.628 641.361 964.498 664.887 961.847 678.978C942.913 677.4 920.491 669.668 910.519 664.667C905.233 685.668 892.184 706.038 891.585 707.127C846.094 657.519 800.257 681.881 781.37 721.628C781.906 737.201 782.948 753.043 784.242 768.412C788.423 742.061 808.147 722.953 833.393 722.953C845.763 722.953 858.765 727.687 870.173 739.284C875.183 731.025 879.566 722.402 883.285 713.486C895.05 719.451 907.573 723.788 920.507 726.377C924.168 720.65 934.566 696.54 937.469 685.353C952.653 690.834 968.308 694.912 984.237 697.534C986.32 687.688 986.825 664.84 985.5 652.28C1000.84 655.72 1031.79 657.329 1041.07 656.383C1039.26 641.977 1032.43 619.855 1026.43 607.327C1045.13 606.222 1074.59 602.325 1088.9 597.859C1081.29 585.094 1060.5 561.395 1050.49 553.206C1067.85 549.34 1104.38 537.553 1121.04 527.218C1108.12 515.179 1077.11 498.516 1059.82 491.937C1082.05 481.507 1119.15 456.94 1133.35 439.867C1112.44 433.145 1071.26 428.412 1047.87 427.875C1096.25 394.74 1097.75 322.994 1083.82 283.973C1074.44 307.641 1043.39 346.473 1023.35 367.427C1025.12 387.387 1018.65 422.731 1007.56 444.316L1007.61 444.38ZM587.891 967.981C587.891 967.981 596.995 989.693 607.788 996.809C614.573 994.426 626.723 983.16 631.314 971.453C636.048 983.16 648.055 994.426 654.84 996.809C665.633 989.693 674.737 967.981 674.737 967.981C677.499 977.307 691.668 992.486 710.303 991.113C693.751 974.561 701.214 929.576 708.03 920.582C677.451 919.43 652.253 926.893 631.314 964.242C610.392 926.83 585.177 919.43 554.614 920.582C561.414 929.544 568.815 974.561 552.342 991.113C570.834 992.422 585.019 977.243 587.765 967.918L587.891 967.981ZM720.29 1020.38C699.384 1019.48 682.122 1001.45 675.81 990.229C668.868 1001.75 656.465 1010.74 656.465 1010.74C647.629 1008.41 635.559 998.781 631.314 991.397C627.07 998.781 614.999 1008.41 606.163 1010.74C606.163 1010.74 593.777 1001.75 586.818 990.229C580.507 1001.4 563.245 1019.48 542.338 1020.38C545.32 1024.83 559.915 1032.61 573.659 1026.33C571.576 1033.92 570.882 1043.31 572.396 1049.75C580.089 1050.1 587.774 1048.92 595.007 1046.28C595.828 1053.23 599.662 1064.56 607.457 1070.37C613.626 1070.37 628.506 1063.17 631.314 1058.74C634.123 1063.17 649.002 1070.37 655.172 1070.37C662.966 1064.56 666.801 1053.23 667.621 1046.28C674.854 1048.92 682.54 1050.1 690.232 1049.75C691.81 1043.31 691.068 1033.97 688.97 1026.33C702.587 1032.55 717.182 1024.85 720.164 1020.32L720.29 1020.38ZM799.784 1082.98C809.772 1078.42 816.983 1066.05 818.876 1053.94C812.101 1057.15 804.673 1058.73 797.18 1058.57C774.554 1058.57 746.104 1045.94 720.338 1034.57C716.026 1037.77 710.917 1039.72 705.569 1040.22C731.572 1048.22 782.68 1076.51 786.435 1094.78C788.944 1106.94 781.007 1111.6 781.007 1111.6C769.631 1093.03 740.33 1064.26 701.23 1049.81C701.31 1053.7 700.901 1057.58 700.015 1061.36C700.015 1061.36 692.125 1063.3 675.211 1060.38C689.948 1072.69 728.669 1116.13 732.866 1149.09C735.675 1171.1 720.243 1172.11 720.243 1172.11C718.05 1138.98 700.693 1104.77 669.357 1070.37C669.357 1070.37 664.229 1078.43 657.396 1082.49C649.891 1080.98 642.719 1078.14 636.221 1074.09C639.914 1117.75 642.107 1174.48 639.803 1191.66C638.225 1203.61 631.251 1208.62 631.251 1208.62C631.251 1208.62 624.293 1203.61 622.699 1191.66C620.411 1174.48 622.589 1117.75 626.281 1074.09C619.784 1078.14 612.611 1080.98 605.106 1082.49C598.289 1078.43 593.145 1070.37 593.145 1070.37C561.762 1104.7 544.405 1138.94 542.196 1172.05C542.196 1172.05 526.827 1171.04 529.573 1149.03C533.77 1116.06 572.491 1072.63 587.228 1060.32C570.377 1063.24 562.44 1061.3 562.44 1061.3C561.543 1057.51 561.129 1053.63 561.209 1049.75C522.11 1064.17 492.808 1092.96 481.432 1111.54C481.432 1111.54 473.543 1106.8 476.004 1094.72C479.759 1076.52 530.867 1048.15 556.87 1040.15C551.522 1039.66 546.413 1037.71 542.101 1034.5C516.335 1045.91 487.901 1058.5 465.259 1058.5C457.766 1058.67 450.338 1057.08 443.563 1053.88C445.456 1065.98 452.667 1078.35 462.655 1082.91C427.69 1107.51 449.275 1165.18 402.38 1154.34C428.542 1202.9 481.432 1207.77 481.432 1207.77C469.771 1182.08 484.446 1103.74 554.582 1068.11C511.364 1111.2 491.688 1163.45 503.144 1200.29C513.668 1234.12 547.86 1247.82 573.611 1248.42C555.403 1192.48 566.621 1128.5 604.411 1088.12C588.222 1132.3 565.454 1250.36 631.235 1273C696.969 1250.36 674.201 1132.33 658.059 1088.12C695.849 1128.44 707.068 1192.48 688.859 1248.42C714.61 1247.82 748.818 1234.12 759.327 1200.29C770.798 1163.45 751.106 1111.2 707.888 1068.11C777.93 1103.74 792.604 1182.08 780.881 1207.77C780.881 1207.77 833.787 1202.9 859.932 1154.34C813.038 1165.18 834.623 1107.51 799.658 1082.91L799.784 1082.98ZM314.035 660.201C330.487 657.516 346.41 652.244 361.214 644.58C363.517 655.152 369.876 674.654 375.557 685.1C391.335 670.079 412.069 663.909 431.492 667.191C455.728 671.294 470.939 686.93 481.448 700.327C481.448 651.412 470.403 613.954 465.543 601.047C542.148 597.497 603.875 575.801 631.219 561.852C658.532 575.801 720.275 597.497 796.896 601.047C792.163 613.954 780.991 651.412 780.991 700.327C791.531 686.93 806.726 671.294 830.963 667.191C850.37 663.909 871.072 670.079 886.882 685.1C892.579 674.654 898.922 655.12 901.225 644.58C916.01 652.235 931.911 657.507 948.341 660.201C949.919 646.19 951.307 626.955 949.256 611.65C965.413 612.155 983.732 612.392 1001.67 609.788C998.801 596.644 987.472 574.586 980.009 562.341C996.04 557.276 1017.01 549.719 1027.34 543.549C1017.13 530.122 1005.78 517.605 993.405 506.138C1005.74 497.712 1024.13 482.201 1032.03 473.207C1019.55 464.876 1000.98 455.851 986.494 450.344C1006.31 421.816 1008.08 375.995 1005.76 357.518C986.257 402.818 936.791 443.196 904.776 463.409C890.18 472.624 895.498 490.122 900.168 497.87C943.765 570.341 864.508 624.352 792.873 588.44C808.494 588.613 824.257 575.327 826.45 563.478C821.48 567.769 801.204 565.418 795.145 559.864C804.36 555.036 806.553 550.145 807.026 545.569C795.634 552.574 772.581 553.537 765.781 541.703C727.912 540.677 702.808 511.139 700.015 502.603C697.206 511.676 692.693 527.534 691.195 543.17C680.938 536.212 663.424 520.48 654.288 499.148C643.924 514.069 636.088 530.594 631.093 548.062C626.099 530.594 618.262 514.069 607.898 499.148C598.763 520.48 581.248 536.212 570.992 543.17C569.414 527.534 564.98 511.613 562.172 502.603C559.395 511.139 534.228 540.677 496.406 541.703C489.605 553.537 466.568 552.574 455.16 545.569C455.634 550.145 457.827 555.036 467.042 559.864C461.046 565.418 440.707 567.754 435.753 563.478C437.93 575.327 453.709 588.613 469.314 588.44C397.742 624.352 318.485 570.341 362.018 497.87C366.752 490.122 372.006 472.624 357.411 463.409C325.428 443.196 275.961 402.818 256.427 357.518C254.108 375.995 255.875 421.816 275.693 450.344C261.208 455.882 242.637 464.876 230.156 473.207C238.045 482.201 256.443 497.712 268.782 506.138C256.472 517.631 245.174 530.164 235.015 543.596C245.429 549.797 266.399 557.324 282.352 562.389C274.951 574.633 263.559 596.692 260.687 609.836C278.628 612.439 296.979 612.202 313.104 611.697C311.116 626.955 312.457 646.158 314.035 660.201ZM872.398 836.15C856.934 803.993 822.284 792.664 786.624 795.015C787.271 801.579 787.918 807.969 788.549 814.123C803.342 815.408 817.242 821.742 827.917 832.063C850.402 854.548 847.656 888.472 827.917 901.49C830.221 927.461 809.125 943.54 789.906 944.566C786.04 950.877 778.546 958.625 763.792 960.565C773.197 980.525 795.287 991.712 815.042 990.135C811.208 974.245 813.369 960.77 815.594 950.845C832.682 963.169 851.349 964.889 869.479 958.64C857.329 942.404 858.859 916.448 858.859 916.448C872.871 921.828 898.417 925.915 913.028 909.442C886.172 892.606 887.45 867.423 872.398 836.15ZM776.526 943.65C765.011 941.198 754.823 934.543 747.951 924.984C740.404 925.466 732.861 923.993 726.05 920.708C729.016 951.556 762.341 956.226 776.526 943.65ZM816.983 906.776C804.577 910.175 791.342 908.725 779.966 902.72C776.679 905.162 773.983 908.311 772.076 911.935C765.771 912.968 759.332 912.867 753.063 911.635C755.808 919.935 768.226 933.726 786.514 933.726C804.801 933.726 816.588 920.708 816.983 906.776ZM803.965 897.592C819.839 897.592 832.651 887.589 832.651 869.191C832.651 845.238 812.486 828.166 789.701 825.341C790.916 837.254 791.926 847.605 792.51 856.031C801.046 850.856 815.263 855.779 814.237 867.565C809.172 862.39 800.73 860.986 796.17 865.546C793.662 868.054 792.478 871.715 793.22 878.263C786.962 881.181 780.285 883.098 773.433 883.944C777.332 888.169 782.049 891.557 787.298 893.903C792.546 896.249 798.217 897.504 803.965 897.592ZM755.493 874.256C758.285 882.859 763.428 890.511 770.341 896.346C768.608 897.934 767.023 899.677 765.607 901.553C752.984 902.247 739.162 895.983 739.162 895.983C739.318 900.515 739.846 905.027 740.74 909.474H698.295C662.509 909.474 641.413 929.087 631.125 944.376C620.853 929.087 599.741 909.474 563.971 909.474H521.526C522.415 905.027 522.943 900.515 523.104 895.983C523.104 895.983 509.281 902.294 496.658 901.553C495.242 899.677 493.658 897.934 491.925 896.346C498.837 890.511 503.98 882.859 506.773 874.256C497.837 874.309 488.934 873.179 480.296 870.895C479.286 850.698 492.382 766.755 492.382 700.39C492.382 648.951 480.264 611.161 480.264 611.161C568.878 605.133 631.188 574.239 631.188 574.239C631.188 574.239 693.514 605.086 782.017 611.161C782.017 611.161 769.883 648.951 769.883 700.39C769.883 766.818 782.995 850.698 781.97 870.895C773.331 873.179 764.428 874.309 755.493 874.256ZM641.76 724.768C670.666 693.557 690.137 667.175 696.07 661.258C704.654 652.659 721.206 664.414 725.371 674.402L710.792 688.982C718.003 695.388 727.344 700.106 732.882 694.583C740.566 686.883 736.59 670.378 723.983 657.787C713.569 647.373 700.82 641.361 687.849 640.699C682.059 660.233 661.215 688.035 641.76 710.472V724.768ZM717.498 673.376C713.963 668.217 704.307 661.968 700.567 665.708C697.285 668.99 699.904 677.069 706.374 684.5L717.498 673.376ZM641.76 758.866C675.321 726.014 710.445 709.526 721.505 702.504C715.967 700.926 709.924 697.187 704.023 691.285C699.056 686.541 695.398 680.596 693.404 674.023C688.812 679.357 669.372 704.745 641.76 733.983V758.866ZM596.001 692.232L571.26 716.973L604.68 740.42C608.419 736.949 616.309 729.06 619.464 725.636L596.001 692.232ZM580.98 670.82L549.864 701.952L566.022 713.281L592.325 686.993L580.98 670.82ZM527.332 672.319L519.096 671.025L521.999 689.565C522.391 692.09 523.475 694.457 525.132 696.402C526.788 698.347 528.952 699.794 531.383 700.582C533.813 701.371 536.414 701.469 538.897 700.867C541.38 700.265 543.647 698.985 545.446 697.171L576.152 666.465C577.963 664.672 579.243 662.412 579.851 659.937C580.458 657.461 580.369 654.866 579.593 652.438C578.818 650.009 577.385 647.843 575.455 646.178C573.525 644.513 571.172 643.414 568.657 643.002L550.117 640.099L551.411 648.336C550.401 648.099 523.009 643.918 523.009 643.918C523.009 643.918 527.19 671.404 527.443 672.319H527.332ZM568.073 831.779L553.493 846.359C543.474 842.193 531.75 825.641 540.334 817.058C547.308 810.083 582.542 784.396 620.695 746.653V733.588L616.64 737.675C595.37 758.945 548.555 800.316 519.711 808.884C520.374 821.854 526.386 834.604 536.8 845.033C549.423 857.656 565.896 861.601 573.596 853.917C579.118 848.347 574.385 838.99 568.073 831.779ZM546.724 820.403H546.535C546.293 820.495 546.056 820.601 545.825 820.718L545.588 820.845C545.302 821.018 545.037 821.224 544.799 821.46C544.37 821.901 544.061 822.444 543.9 823.038C543.9 823.038 543.9 823.164 543.9 823.243C543.844 823.466 543.807 823.692 543.789 823.921C543.75 826.333 544.431 828.701 545.746 830.722C547.428 833.737 549.73 836.361 552.499 838.422L563.623 827.377C557.265 821.886 550.574 819.188 546.646 820.403H546.724ZM581.595 842.493C587.26 833.578 599.094 808.979 620.695 782.202V755.489C588.333 786.936 558.906 809.405 553.115 814.391C559.687 816.386 565.633 820.043 570.377 825.01C576.199 830.911 579.986 836.955 581.516 842.493H581.595ZM635.59 853.538V853.443C640.301 852.449 644.525 849.863 647.553 846.121C650.581 842.378 652.228 837.707 652.217 832.893C652.206 828.078 650.537 823.415 647.492 819.686C644.447 815.957 640.211 813.391 635.496 812.419V710.33C629.926 710.33 626.975 714.48 626.975 722.243V812.482C622.262 813.465 618.032 816.041 614.995 819.777C611.959 823.513 610.301 828.18 610.301 832.994C610.301 837.808 611.959 842.476 614.995 846.211C618.032 849.947 622.262 852.523 626.975 853.506C624.813 861.396 622.541 867.423 616.23 879.51C615.707 880.512 615.603 881.681 615.942 882.76C616.281 883.838 617.034 884.738 618.036 885.261C619.039 885.784 620.208 885.888 621.286 885.549C622.365 885.21 623.265 884.457 623.788 883.455C626.559 878.275 629.061 872.956 631.283 867.518C633.504 872.956 636.006 878.275 638.778 883.455C639.301 884.457 640.2 885.21 641.279 885.549C642.358 885.888 643.527 885.784 644.529 885.261C645.531 884.738 646.285 883.838 646.623 882.76C646.962 881.681 646.859 880.512 646.336 879.51C639.945 867.471 637.689 861.38 635.511 853.585L635.59 853.538ZM660.536 806.06L685.277 781.335L651.953 757.935C649.16 760.459 644.537 764.925 641.839 767.781V779.425L660.536 806.06ZM675.558 827.472L706.673 796.356L690.437 785.011L664.134 811.362L675.558 827.472ZM729.205 825.894L737.442 827.188L734.539 808.648C734.147 806.123 733.063 803.756 731.406 801.811C729.749 799.866 727.585 798.419 725.155 797.631C722.725 796.842 720.123 796.744 717.641 797.346C715.158 797.948 712.89 799.228 711.091 801.042L680.244 831.874C678.435 833.676 677.161 835.944 676.563 838.427C675.965 840.909 676.066 843.509 676.855 845.938C677.645 848.366 679.091 850.528 681.035 852.185C682.978 853.841 685.342 854.927 687.865 855.321L706.389 858.224L705.111 849.988C706.105 850.224 733.513 854.422 733.513 854.422C733.513 854.422 729.316 827.014 729.016 826.036L729.205 825.894Z" fill="white"/>
</svg>