<svg width="56" height="56" viewBox="0 0 56 56" fill="none" xmlns="http://www.w3.org/2000/svg">
<rect width="56" height="56" rx="28" fill="#F1F5FA"/>
<path d="M28.0044 35.1327C28.155 35.1327 28.3022 35.1772 28.4274 35.2606C28.5526 35.344 28.6502 35.4626 28.7078 35.6013C28.7654 35.74 28.7805 35.8926 28.7511 36.0399C28.7217 36.1871 28.6492 36.3224 28.5428 36.4286C28.4363 36.5347 28.3006 36.607 28.1529 36.6363C28.0052 36.6656 27.8521 36.6506 27.713 36.5931C27.5739 36.5357 27.455 36.4384 27.3713 36.3135C27.2877 36.1887 27.243 36.0419 27.243 35.8918C27.2436 35.6907 27.324 35.4979 27.4667 35.3557C27.6093 35.2134 27.8026 35.1333 28.0044 35.1327V35.1327ZM31.8968 34.9139C31.883 34.8215 31.8437 34.7347 31.7833 34.6633C31.7228 34.5919 31.6437 34.5387 31.5546 34.5096C31.4655 34.4806 31.3701 34.4768 31.279 34.4988C31.1879 34.5207 31.1048 34.5675 31.0389 34.6339L29.9067 35.7605C29.8409 35.8266 29.7947 35.9095 29.7731 36.0001C29.7516 36.0907 29.7555 36.1854 29.7846 36.2739C29.8136 36.3624 29.8666 36.4412 29.9377 36.5015C30.0088 36.5619 30.0953 36.6014 30.1875 36.6159L30.8677 36.7231L30.8195 36.419L31.8639 36.5831L31.6993 35.544L32.0021 35.5921L31.8968 34.9139ZM24.101 30.5387C24.1114 30.6329 24.1482 30.7222 24.207 30.7966C24.2659 30.8709 24.3445 30.9273 24.434 30.9592C24.5234 30.9911 24.6201 30.9973 24.7129 30.9772C24.8057 30.957 24.891 30.9112 24.9589 30.845L26.0911 29.7074C26.1571 29.6416 26.2035 29.5589 26.2251 29.4684C26.2468 29.3779 26.2428 29.2832 26.2137 29.1948C26.1846 29.1064 26.1315 29.0277 26.0603 28.9676C25.9891 28.9075 25.9025 28.8683 25.8103 28.8543L25.1301 28.7471L25.1762 29.0511L24.1339 28.8871L24.2985 29.9262L23.9935 29.8781L24.101 30.5387ZM31.0103 34.297L28.8623 32.8773C29.6406 32.1814 30.4951 31.5753 31.4097 31.0703C30.9566 30.9631 30.5545 30.7035 30.2709 30.3353C30.2709 30.3353 29.0532 31.8666 28.1821 32.3697C29.3977 31.1031 29.9506 30.0487 30.1766 29.8277C30.4772 29.5324 31.1025 29.8802 31.153 30.2018C30.7953 30.0968 30.6681 30.2871 30.8743 30.4862C31.1683 30.775 31.6752 30.9653 31.9034 30.7422C32.1315 30.519 31.9626 29.8343 31.4272 29.3115C30.8919 28.7886 30.2358 28.5786 29.9615 28.8455C29.6873 29.1124 29.1585 30.355 27.7981 31.7922L26.655 30.0728L24.994 31.1644L27.0543 32.5273C26.13 33.2811 25.0985 33.8937 23.9935 34.3452C24.3118 34.5076 24.6177 34.6933 24.9085 34.9008C25.8573 34.2935 26.7694 33.6309 27.6402 32.9167C26.9819 33.8748 25.446 34.9643 24.8273 35.4258C24.5442 35.6293 24.6079 36.0952 24.9545 36.4409C25.3012 36.7865 25.6984 36.8172 25.9463 36.5765C26.2469 36.2834 26.7998 35.0255 28.1404 33.5926L29.334 35.3843L31.0103 34.297ZM19.9475 20.7973C20.6233 20.1957 21.6019 20.1957 22.168 20.3838C21.7593 19.9779 21.2544 19.6814 20.7001 19.5219C20.484 19.6616 20.3034 19.8496 20.1728 20.071C20.0422 20.2924 19.965 20.541 19.9475 20.7973V20.7973ZM22.8328 39.5539C22.6573 39.4773 22.394 39.3154 22.2185 38.7444C21.928 38.6999 21.6534 38.5833 21.4198 38.4054C20.981 37.9678 21.2004 37.4647 21.3145 37.0928C20.8384 36.5262 20.9393 36.0252 21.2552 35.7102C21.4931 35.5139 21.7675 35.3662 22.0627 35.2758C22.3578 35.1853 22.668 35.1538 22.9754 35.183V34.1045C21.9332 33.7808 20.9064 33.8704 20.1033 34.6821C19.2037 35.5899 18.9865 36.3271 17.8478 36.7712C18.2866 37.5172 19.0611 37.5609 19.7194 37.5413C19.581 38.0602 19.2531 38.5088 18.8 38.7991C19.2388 39.2367 20.0353 39.3964 20.7374 39.2148C20.7185 39.6409 20.614 40.059 20.4303 40.4442C20.8736 40.5598 21.342 40.5363 21.7715 40.377C22.201 40.2177 22.5708 39.9303 22.8306 39.5539H22.8328ZM18.4775 34.6055C19.116 33.8923 19.5745 32.5404 19.8313 30.9653C20.7747 30.9653 22.2448 31.4378 22.9733 32.5426V28.6202C22.0944 28.8393 21.1827 28.8964 20.2832 28.7886C18.789 28.5699 17.9509 27.4761 17.9509 26.1635C17.9542 25.8022 18.0328 25.4454 18.1816 25.1159C18.3304 24.7864 18.5462 24.4913 18.8154 24.2493C18.844 24.2293 18.8667 24.202 18.8811 24.1702C18.8954 24.1385 18.901 24.1035 18.8972 24.0688C18.8934 24.0342 18.8803 24.0012 18.8594 23.9733C18.8384 23.9454 18.8104 23.9236 18.7781 23.9103C18.7035 23.8731 18.664 23.8359 18.5894 23.7987C13.9225 20.8717 9.70755 14.042 9.25556 13.2982C9.24901 13.2896 9.24056 13.2826 9.23085 13.2778C9.22114 13.273 9.21045 13.2705 9.19961 13.2705C9.18877 13.2705 9.17808 13.273 9.16838 13.2778C9.15867 13.2826 9.15021 13.2896 9.14366 13.2982C7.71309 14.5364 7.5617 17.0171 9.06906 18.9269C10.0476 20.2023 12.154 21.5914 14.2999 22.7924C14.2626 23.0112 14.2626 23.243 14.2231 23.4684C9.85456 22.5321 7.0351 19.4825 6.58311 18.9947C6.57657 18.9861 6.56811 18.9791 6.5584 18.9743C6.54869 18.9695 6.538 18.967 6.52716 18.967C6.51633 18.967 6.50563 18.9695 6.49593 18.9743C6.48622 18.9791 6.47776 18.9861 6.47121 18.9947C5.64403 20.572 6.35931 22.7136 7.97639 23.6106C9.36966 24.3981 11.5901 24.8487 14.3394 25.1878C14.3767 25.3738 14.414 25.5619 14.4513 25.7872C11.7803 26.1376 9.06442 25.721 6.62261 24.5862C6.58311 24.549 6.54581 24.5862 6.50851 24.6234C6.31982 26.3123 7.37519 27.6642 9.21826 28.0011C11.0635 28.2636 14.9778 27.3251 14.9778 27.3251C15.0492 27.5079 15.1373 27.6836 15.2411 27.8501C12.6806 29.3137 9.02957 29.1627 8.50298 29.1277C8.48369 29.1292 8.46558 29.1375 8.45191 29.1512C8.43823 29.1648 8.42989 29.1829 8.42838 29.2021C8.46568 30.9653 10.1968 31.4531 11.7393 31.265C13.0558 31.0791 14.9011 30.215 16.1802 29.2393C16.309 29.3863 16.4475 29.5244 16.5949 29.6527C15.353 31.6785 12.4546 32.4966 11.476 32.5798C11.4387 32.5798 11.4014 32.6169 11.4387 32.6541C12.0794 33.7479 13.4705 34.0805 15.0151 33.3673C15.9169 32.9167 17.0469 31.79 17.8368 30.5234L18.4007 30.7422C17.9114 33.1814 15.5044 34.6449 15.0897 34.8702C15.0524 34.8702 15.0524 34.9446 15.0897 34.9446C15.805 35.7299 17.4616 35.7693 18.4775 34.6055ZM22.3611 11.3403L21.6085 10.4412L20.8471 11.3403L21.5997 12.2503L22.3611 11.3403ZM13.7733 16.8202C14.1858 16.5183 15.6536 15.6936 15.2784 17.2577C15.4564 17.2014 15.6129 17.0923 15.727 16.9449C15.8411 16.7975 15.9074 16.6189 15.9169 16.433C15.9169 15.4202 14.5259 14.9695 14.5259 13.9938C14.5259 12.5675 16.8209 12.5675 16.7463 12.7928C16.3316 14.0682 17.1215 15.6827 19.3047 15.757V15.4683C17.4616 15.4683 16.6322 13.5169 18.0628 12.1672C17.2729 9.76081 16.1056 12.1672 15.127 12.8038C14.5632 13.1429 13.0207 12.9547 12.9066 13.6307C12.7574 14.6807 14.5632 14.6436 13.7733 16.8202ZM33.832 20.3838C34.2074 20.2633 34.607 20.2379 34.9948 20.3101C35.3825 20.3823 35.746 20.5497 36.0524 20.7973C36.0357 20.5416 35.9596 20.2933 35.8301 20.072C35.7006 19.8507 35.5214 19.6624 35.3064 19.5219C34.7498 19.6804 34.2425 19.9769 33.832 20.3838V20.3838ZM35.8967 34.6821C35.0914 33.8704 34.0668 33.7808 33.0224 34.1045V35.1852C33.6439 35.1265 34.2633 35.3161 34.7447 35.7124C35.0585 36.0274 35.1594 36.5284 34.6855 37.095C34.793 37.4647 35.0102 37.97 34.578 38.4076C34.3448 38.5861 34.07 38.7028 33.7793 38.7466C33.6038 39.3176 33.3405 39.4795 33.1672 39.556C33.4271 39.9329 33.7973 40.2206 34.2273 40.3799C34.6572 40.5393 35.1261 40.5625 35.5697 40.4464C35.386 40.0612 35.2815 39.6431 35.2626 39.217C35.9647 39.3985 36.7633 39.2367 37.2 38.8013C36.7462 38.5118 36.418 38.0628 36.2806 37.5434C36.9389 37.5631 37.72 37.5194 38.1522 36.7734C37.0135 36.3271 36.7941 35.5899 35.8967 34.6821V34.6821ZM49.3752 24.5862C46.9333 25.7208 44.2175 26.1374 41.5465 25.7872C41.5838 25.5685 41.6233 25.3738 41.6606 25.1878C44.4077 24.8487 46.6281 24.3981 48.0236 23.6106C49.6407 22.7093 50.356 20.572 49.5288 18.9947C49.522 18.9861 49.5134 18.9791 49.5035 18.9743C49.4936 18.9695 49.4827 18.967 49.4717 18.967C49.4607 18.967 49.4499 18.9695 49.44 18.9743C49.4301 18.9791 49.4215 18.9861 49.4147 18.9947C48.9627 19.4825 46.141 22.5233 41.7747 23.4618C41.7374 23.243 41.7374 23.0112 41.7001 22.7858C43.846 21.5848 45.9524 20.1957 46.9309 18.9203C48.4361 17.0062 48.2869 14.5298 46.8563 13.2916C46.8496 13.283 46.8409 13.276 46.831 13.2712C46.8211 13.2664 46.8103 13.2639 46.7993 13.2639C46.7883 13.2639 46.7774 13.2664 46.7676 13.2712C46.7577 13.276 46.749 13.283 46.7422 13.2916C46.2924 14.042 42.0753 20.8717 37.4084 23.7921C37.3338 23.8293 37.2965 23.8665 37.2219 23.9037C37.1896 23.9171 37.1616 23.9388 37.1406 23.9667C37.1197 23.9946 37.1066 24.0276 37.1028 24.0623C37.099 24.0969 37.1045 24.1319 37.1189 24.1637C37.1333 24.1954 37.156 24.2227 37.1846 24.2428C37.4538 24.4848 37.6696 24.7799 37.8184 25.1094C37.9672 25.4389 38.0458 25.7956 38.0491 26.1569C38.0491 27.4695 37.2109 28.5633 35.7167 28.7821C34.8165 28.8898 33.9042 28.8328 33.0246 28.6136V32.536C33.764 31.4313 35.2187 30.9587 36.1665 30.9587C36.432 32.5338 36.8818 33.8858 37.5225 34.5989C38.5384 35.7627 40.195 35.7234 40.9102 34.9358C40.9475 34.9358 40.9475 34.8614 40.9102 34.8614C40.4956 34.6427 38.0864 33.1726 37.5971 30.7334L38.1632 30.5147C38.9531 31.79 40.0809 32.921 40.9849 33.3585C42.5207 34.0717 43.9206 33.7326 44.5591 32.6454C44.5986 32.6082 44.5591 32.571 44.5218 32.571C43.5432 32.4944 40.647 31.6697 39.4051 29.644C39.5518 29.5156 39.6896 29.3775 39.8176 29.2305C41.0967 30.2062 42.942 31.0703 44.2585 31.2563C45.7944 31.4444 47.5343 30.9566 47.5716 29.1933C47.5701 29.1738 47.5614 29.1554 47.5473 29.1417C47.5331 29.1281 47.5145 29.12 47.4948 29.119C46.9682 29.1562 43.326 29.3049 40.7589 27.8414C40.8627 27.6749 40.9508 27.4991 41.0221 27.3164C41.0221 27.3164 44.9365 28.2549 46.7817 27.9923C48.6248 27.6555 49.678 26.3035 49.4893 24.6147C49.4498 24.5862 49.4125 24.549 49.3752 24.5862V24.5862ZM35.1485 11.3403L34.3959 10.4412L33.6433 11.3403L34.3959 12.2503L35.1485 11.3403ZM39.2559 12.8038C39.1813 12.585 41.4763 12.585 41.4763 14.0048C41.4763 14.9804 40.0831 15.4311 40.0831 16.444C40.0928 16.6302 40.1594 16.8089 40.2739 16.9563C40.3884 17.1037 40.5454 17.2127 40.7237 17.2687C40.3464 15.6936 41.8208 16.5183 42.2289 16.8312C41.439 14.6436 43.2448 14.6917 43.0956 13.6416C42.9815 12.9657 41.439 13.1538 40.8751 12.8147C39.8966 12.1781 38.7293 9.77612 37.9394 12.1781C39.3678 13.5279 38.5406 15.4792 36.6975 15.4792V15.7789C38.8741 15.6936 39.6662 14.0791 39.2559 12.8038ZM20.2087 15.8445H23.0303C25.4022 15.8445 26.4553 14.381 26.7932 13.1429H29.2068C29.5469 14.381 30.6 15.8445 32.9697 15.8445H35.7892C36.0325 15.5127 36.2468 15.1607 36.4298 14.7923C36.8687 13.6307 36.3157 13.0663 35.4886 13.0663L34.3915 14.042L33.2637 13.1035C32.4343 13.1035 31.8704 13.6307 32.3224 14.8295C32.397 14.9804 32.5418 15.2058 32.6603 15.3939C31.6444 15.243 30.3653 14.567 30.102 13.1035C30.4508 12.5743 30.7652 12.0233 31.0433 11.454C31.719 9.76518 30.8546 9.04765 29.6127 9.04765L27.9978 10.9377L26.3807 9.06077C25.1389 9.06077 24.2722 9.77393 24.9502 11.4671C25.2282 12.0365 25.5427 12.5874 25.8914 13.1166C25.6281 14.5801 24.3556 15.2561 23.3309 15.407C23.445 15.2189 23.5942 14.9936 23.671 14.8426C24.123 13.6438 23.5569 13.1166 22.7297 13.1166L21.5997 14.0551L20.5027 13.0794C19.6755 13.0794 19.1094 13.6438 19.5614 14.8054C19.7471 15.1695 19.9637 15.5171 20.2087 15.8445V15.8445ZM29.0532 7.40038L27.9978 6.125L26.9446 7.40038L27.9978 8.75013L29.0532 7.40038ZM36.7677 19.0319C36.9999 19.0508 37.222 19.1348 37.4083 19.2741C37.5947 19.4135 37.7377 19.6025 37.8209 19.8194C38.0842 19.6007 38.3475 18.8438 38.2356 18.3187C37.7836 15.9124 32.2127 17.4918 29.3911 16.479C29.3165 17.1549 30.2556 18.2794 31.1222 18.6928C29.6171 20.0054 28.2699 22.6305 27.9978 25.8222C27.7345 22.6327 26.3807 20.0054 24.8756 18.6928C25.74 18.2794 26.6813 17.1615 26.6067 16.479C23.7829 17.5006 18.2142 15.9189 17.7534 18.3209C17.6393 18.8459 17.9026 19.5963 18.1681 19.8216C18.2513 19.6047 18.3944 19.4157 18.5807 19.2763C18.7671 19.137 18.9891 19.053 19.2213 19.0341C22.0737 18.5966 24.6188 21.6877 24.6188 24.3412C24.6347 25.0306 24.4941 25.7147 24.2076 26.3424C23.9212 26.9701 23.4962 27.5251 22.9645 27.9661L27.989 26.7388L33.0136 27.9661C32.4822 27.5249 32.0577 26.9697 31.7716 26.3421C31.4855 25.7144 31.3453 25.0305 31.3614 24.3412C31.3702 21.6877 33.9132 18.5944 36.7677 19.0319ZM29.2397 41.2471C29.729 39.8951 30.3499 38.5016 31.4075 38.5016C31.9253 38.5016 32.3861 38.996 32.724 39.0507C32.7946 39.0663 32.8684 39.0597 32.9351 39.0319C33.0019 39.0041 33.0584 38.9564 33.097 38.8954C33.2167 38.6949 33.2915 38.4711 33.3164 38.2391C33.5767 38.2182 33.8329 38.1615 34.0777 38.0707C34.1449 38.0469 34.2015 38.0004 34.2376 37.9392C34.2737 37.8779 34.287 37.806 34.2752 37.736C34.2349 37.4716 34.1487 37.2162 34.0207 36.9812C34.1853 36.8415 34.3203 36.6705 34.4178 36.4781C34.4488 36.4138 34.457 36.3409 34.4411 36.2714C34.4252 36.2018 34.386 36.1397 34.3301 36.0952C33.96 35.8328 33.5073 35.7124 33.0553 35.7562H33.0355V36.5328C33.0463 36.7097 33.0199 36.8869 32.9581 37.053C32.8962 37.2191 32.8003 37.3706 32.6764 37.4976C32.5525 37.6247 32.4033 37.7245 32.2385 37.7908C32.0736 37.8571 31.8967 37.8883 31.719 37.8825H30.2446C29.8038 37.8724 29.3676 37.9734 28.9764 38.1761C28.5852 38.3787 28.2516 38.6766 28.0066 39.042C27.762 38.6766 27.4288 38.3787 27.038 38.176C26.6471 37.9733 26.2112 37.8724 25.7708 37.8825H24.2875C24.11 37.888 23.9332 37.8565 23.7685 37.7901C23.6038 37.7237 23.4548 37.6239 23.331 37.4969C23.2071 37.3699 23.1112 37.2186 23.0492 37.0526C22.9872 36.8866 22.9606 36.7096 22.9711 36.5328V35.7649H22.9535C22.5026 35.7194 22.0503 35.8366 21.6787 36.0952C21.6231 36.14 21.5844 36.2022 21.5689 36.2718C21.5533 36.3413 21.5619 36.414 21.5931 36.4781C21.6899 36.6709 21.8251 36.8421 21.9903 36.9812C21.8622 37.2162 21.7761 37.4716 21.7358 37.736C21.7239 37.806 21.7372 37.8779 21.7734 37.9392C21.8095 38.0004 21.8661 38.0469 21.9332 38.0707C22.178 38.1617 22.4342 38.2184 22.6946 38.2391C22.7195 38.4711 22.7943 38.6949 22.914 38.8954C22.9525 38.9564 23.0091 39.0041 23.0758 39.0319C23.1426 39.0597 23.2164 39.0663 23.287 39.0507C23.6227 38.996 24.0813 38.5016 24.6035 38.5016C25.6611 38.5016 26.2798 39.8951 26.7691 41.2471C24.3556 41.8093 21.3496 43.4237 20.7484 45.1848C20.529 45.8607 21.275 46.7598 22.2163 46.948C22.2536 46.948 22.2909 46.948 22.2909 46.9108C22.7802 44.3207 25.604 42.3693 27.0719 42.0324C27.1465 42.2206 27.1092 42.1834 27.1838 42.3693C25.604 43.1218 24.0593 44.6969 23.6074 46.5739C23.4209 47.4358 24.3621 48.2234 25.1432 48.4115C25.1805 48.4115 25.2178 48.4115 25.2178 48.3743C25.3692 46.0095 26.4224 43.9838 27.3637 43.0453C27.401 43.2334 27.401 43.4216 27.4383 43.5703C27.4383 43.5703 26.4597 46.272 26.4597 48.2234C26.4597 49.1247 27.8157 49.7547 27.9956 49.875C28.1843 49.7634 29.5315 49.1247 29.5315 48.2234C29.5315 46.272 28.5529 43.5703 28.5529 43.5703C28.5902 43.4216 28.5902 43.2334 28.6275 43.0453C29.5688 43.9838 30.622 46.0095 30.7734 48.3743C30.7734 48.4115 30.8107 48.4115 30.848 48.4115C31.6379 48.2234 32.5791 47.4358 32.3839 46.5739C31.9319 44.6969 30.3894 43.1218 28.8096 42.3693C28.8842 42.1834 28.8469 42.2206 28.9215 42.0324C30.3894 42.3693 33.2132 44.3207 33.7025 46.9108C33.7025 46.948 33.7398 46.948 33.7771 46.948C34.7184 46.7598 35.471 45.8542 35.245 45.1848C34.6592 43.4237 31.6488 41.8093 29.2397 41.2471Z" fill="#04092A"/>
</svg>
